<?xml version="1.0" encoding="UTF-8" standalone="no"?>
<svg
   xmlns:dc="http://purl.org/dc/elements/1.1/"
   xmlns:cc="http://creativecommons.org/ns#"
   xmlns:rdf="http://www.w3.org/1999/02/22-rdf-syntax-ns#"
   xmlns:svg="http://www.w3.org/2000/svg"
   xmlns="http://www.w3.org/2000/svg"
   viewBox="0 0 3302.6667 2424"
   height="2424"
   width="3302.6667"
   xml:space="preserve"
   id="svg2"
   version="1.1"><metadata
     id="metadata8"><rdf:RDF><cc:Work
         rdf:about=""><dc:format>image/svg+xml</dc:format><dc:type
           rdf:resource="http://purl.org/dc/dcmitype/StillImage" /></cc:Work></rdf:RDF></metadata><defs
     id="defs6" /><g
     transform="matrix(1.3333333,0,0,-1.3333333,0,2424)"
     id="g10"><g
       transform="scale(0.1)"
       id="g12"><g
         transform="scale(1.03394)"
         id="g14"><path
           id="path16"
           style="fill:#49c3ca;fill-opacity:1;fill-rule:nonzero;stroke:none"
           d="m 16298.7,8867.58 c 0.7,31.74 1.3,63.66 1.3,95.51 0,2395.71 -1942.2,4337.81 -4337.8,4337.81 -2395.65,0 -4337.73,-1942.1 -4337.73,-4337.81 0,-31.85 0.57,-63.77 1.28,-95.51 h 8672.95" /></g><g
         transform="scale(1.03394)"
         id="g18"><path
           id="path20"
           style="fill:#3d94af;fill-opacity:1;fill-rule:nonzero;stroke:none"
           d="m 16300,8963.09 c 0,631.23 -134.9,1230.81 -377.4,1771.81 -1120.1,-1573.39 -6453.06,-668.3 -7070.8,-87.8 -334.29,314 -79.73,984.6 281.34,1604.3 -923.76,-795.5 -1508.67,-1973.6 -1508.67,-3288.31 0,-31.85 0.57,-63.77 1.28,-95.51 h 8672.95 c 0.7,31.74 1.3,63.66 1.3,95.51" /></g><g
         transform="scale(1.33415)"
         id="g22"><path
           id="path24"
           style="fill:#b471bf;fill-opacity:1;fill-rule:nonzero;stroke:none"
           d="M 16147.4,5115.25 C 15385.9,5996.64 11500.4,7049.54 9277.31,7181.2 7054.3,7049.54 3168.95,5996.64 2407.32,5115.25 c -152.58,-176.59 -66.75,-301.54 -66.75,-301.54 h 6936.74 6936.89 c 0,0 85.8,124.95 -66.8,301.54" /></g><g
         transform="scale(1.1783)"
         id="g26"><path
           id="path28"
           style="fill:#d198d2;fill-opacity:1;fill-rule:nonzero;stroke:none"
           d="m 16125.3,6150.55 c -128.1,294.66 -1034.2,1065.52 -2389,1463.36 -286.2,67.34 -572.9,129.5 -856.5,186.12 -253,36.1 -516.5,57.18 -789.2,59.34 L 7871.4,7747.35 C 7429.1,7654.26 6981.92,7548.18 6544.55,7432.12 5653.74,7111.97 4455.17,6594.07 4543.06,6150.55 c 138.77,-700.16 11756.94,-402.1 11582.24,0" /></g><g
         transform="scale(1.0711)"
         id="g30"><path
           id="path32"
           style="fill:#eaceea;fill-opacity:1;fill-rule:nonzero;stroke:none"
           d="m 15929.4,7470.37 c -153.7,330.58 -610.2,679.16 -1101,970.55 -1173.8,263.31 -2340.6,448.61 -3272.7,503.9 C 10570.6,8886.43 9323.41,8682.79 8082.54,8395.19 7388.77,8002.88 6861.6,7581.85 7047.6,7274.03 c 459.84,-760.62 9252.4,-600.6 8881.8,196.34" /></g><g
         transform="scale(1.19029)"
         id="g34"><path
           id="path36"
           style="fill:#9044a7;fill-opacity:1;fill-rule:nonzero;stroke:none"
           d="m 14334.3,7353.16 c 732.1,-552.12 1500,-1237.84 1965.7,-1957.66 h -137.4 c -521,758.98 -1387.4,1485.74 -2161.7,2043.91 111.6,-28.03 222.9,-56.91 333.4,-86.25" /></g><path
         id="path38"
         style="fill:#9044a7;fill-opacity:1;fill-rule:nonzero;stroke:none"
         d="m 14119.8,6422.2 c -255.3,1427.5 -614.2,2447.33 -889.6,3081.9 49,-5.74 98.3,-11.64 148,-17.85 276.8,-656.84 621.9,-1672.35 868.2,-3064.05 h -126.6" /><path
         id="path40"
         style="fill:#9044a7;fill-opacity:1;fill-rule:nonzero;stroke:none"
         d="M 7692.77,8752.38 C 6821.33,8095.2 5907.42,7279 5353.09,6422.2 h 163.51 c 620.12,903.4 1651.41,1768.46 2573.13,2432.84 -132.89,-33.36 -265.24,-67.74 -396.96,-102.66" /><path
         id="path42"
         style="fill:#9044a7;fill-opacity:1;fill-rule:nonzero;stroke:none"
         d="m 10635,6422.2 c 255.3,1427.5 614.1,2447.33 889.6,3081.9 -49,-5.74 -98.3,-11.64 -148,-17.85 -277,-656.84 -622,-1672.35 -868.3,-3064.05 h 126.7" /><g
         transform="scale(1.04675)"
         id="g44"><path
           id="path46"
           style="fill:#1c3960;fill-opacity:1;fill-rule:nonzero;stroke:none"
           d="m 7349.21,8361.49 c 0,0 4475.29,556.9 8950.79,0 0,0 -10.9,543.96 -273.2,718.15 0,0 -4625.4,569.7 -8298.36,0 0,0 -503.98,-0.96 -379.23,-718.15" /></g><g
         transform="scale(1.32958)"
         id="g48"><path
           id="path50"
           style="fill:#7b558b;fill-opacity:1;fill-rule:nonzero;stroke:none"
           d="m 2323.74,4788.95 c 0,-372 1122.12,-1439.48 6988.51,-1453.69 C 15178.7,3321.12 16300,4416.8 16300,4788.8 c 0,371.92 -3128.6,673.52 -6988.13,673.52 -3859.45,0.07 -6988.13,-301.45 -6988.13,-673.37" /></g><g
         transform="scale(1.1298)"
         id="g52"><path
           id="path54"
           style="fill:#7b558b;fill-opacity:1;fill-rule:nonzero;stroke:none"
           d="m 5617.05,4888.49 c 0,-473.19 2391.48,-856.88 5341.45,-856.88 2950,0 5341.5,383.69 5341.5,856.88 0,473.27 -2391.5,856.88 -5341.5,856.88 -2949.97,0 -5341.45,-383.61 -5341.45,-856.88" /></g><g
         transform="scale(1.1336)"
         id="g56"><path
           id="path58"
           style="fill:#5b3b67;fill-opacity:1;fill-rule:nonzero;stroke:none"
           d="m 5598.23,4872.11 h -54.51 c -0.06,-41.11 13.3,-80.98 35.95,-116.53 42.72,-66.6 115.12,-122.27 212.94,-175.37 171.37,-92.19 424.51,-174.84 747.87,-249.3 969.27,-222.65 2569.3,-367.15 4381.32,-367.32 1472.5,0.08 2805.4,95.71 3773,250.88 483.9,77.72 876.2,169.99 1151.6,274.26 137.8,52.4 246.5,107.44 324.5,168.4 38.9,30.52 70.4,62.81 93.1,98.45 22.6,35.55 36,75.42 35.9,116.53 0.1,41.11 -13.3,80.98 -35.9,116.44 -42.8,66.69 -115.1,122.36 -212.9,175.46 -171.4,92.19 -424.6,174.76 -748,249.3 -969.2,222.65 -2569.3,367.15 -4381.3,367.33 -1472.48,-0.09 -2805.45,-95.72 -3772.94,-250.89 -483.99,-77.71 -876.23,-169.9 -1151.66,-274.35 -137.73,-52.31 -246.45,-107.27 -324.46,-168.22 -38.94,-30.61 -70.44,-62.99 -93.07,-98.63 -22.65,-35.46 -36.01,-75.33 -35.95,-116.44 h 54.51 54.48 c 0.11,17.82 5.28,36.26 19.06,58.14 25.4,40.93 83.49,90.06 172.57,137.79 155.79,84.15 402.65,166.02 720.57,238.97 954.89,219.74 2551.22,364.68 4356.89,364.59 1467.6,0 2796.4,-95.54 3755.8,-249.47 479.3,-76.84 866.7,-168.58 1130.1,-268.62 131.7,-49.75 232.1,-101.97 295.9,-152.17 32,-25.05 54.5,-49.31 68.2,-71.09 13.8,-21.88 19,-40.32 19.1,-58.14 -0.1,-17.91 -5.3,-36.26 -19.1,-58.13 -25.3,-41.02 -83.4,-90.07 -172.6,-137.8 -155.7,-84.15 -402.5,-166.02 -720.6,-239.06 -954.8,-219.65 -2551.1,-364.59 -4356.8,-364.5 -1467.63,0 -2796.48,95.53 -3755.68,249.47 -479.46,76.84 -866.85,168.58 -1130.22,268.53 -131.6,49.84 -232.08,102.06 -295.9,152.34 -31.94,24.97 -54.55,49.23 -68.23,71.02 -13.78,21.87 -18.95,40.22 -19.06,58.13 h -54.48" /></g><path
         id="path60"
         style="fill:#bd7b26;fill-opacity:1;fill-rule:nonzero;stroke:none"
         d="m 8755.82,5797.7 c 0,-134.8 340.35,-244.1 760.31,-244.1 419.89,0 760.27,109.3 760.27,244.1 0,134.8 -340.38,244 -760.27,244 -419.96,0 -760.31,-109.2 -760.31,-244" /><path
         id="path62"
         style="fill:#efb619;fill-opacity:1;fill-rule:nonzero;stroke:none"
         d="m 8908.32,5748.7 c 0,-107.6 272.15,-195.1 607.81,-195.1 335.71,0 607.77,87.5 607.77,195.1 0,107.7 -272.06,195 -607.77,195 -335.66,0 -607.81,-87.3 -607.81,-195" /><path
         id="path64"
         style="fill:#fce99f;fill-opacity:1;fill-rule:nonzero;stroke:none"
         d="m 9072.58,5695.9 c 0,-78.6 198.59,-142.3 443.55,-142.3 245.04,0 443.52,63.7 443.52,142.3 0,78.7 -198.48,142.5 -443.52,142.5 -244.96,0 -443.55,-63.8 -443.55,-142.5" /><path
         id="path66"
         style="fill:#bd7b26;fill-opacity:1;fill-rule:nonzero;stroke:none"
         d="m 6802.11,5511.5 c 0,-95.8 242.03,-173.6 540.62,-173.6 298.56,0 540.55,77.8 540.55,173.6 0,95.8 -241.99,173.5 -540.55,173.5 -298.59,0 -540.62,-77.7 -540.62,-173.5" /><path
         id="path68"
         style="fill:#efb619;fill-opacity:1;fill-rule:nonzero;stroke:none"
         d="m 6910.63,5476.6 c 0,-76.6 193.39,-138.7 432.1,-138.7 238.68,0 432.15,62.1 432.15,138.7 0,76.6 -193.47,138.8 -432.15,138.8 -238.71,0 -432.1,-62.2 -432.1,-138.8" /><path
         id="path70"
         style="fill:#fce99f;fill-opacity:1;fill-rule:nonzero;stroke:none"
         d="m 7027.3,5439.2 c 0,-55.9 141.22,-101.3 315.43,-101.3 174.18,0 315.36,45.4 315.36,101.3 0,55.8 -141.18,101.2 -315.36,101.2 -174.21,0 -315.43,-45.4 -315.43,-101.2" /><g
         transform="scale(1.10028)"
         id="g72"><path
           id="path74"
           style="fill:#bd7b26;fill-opacity:1;fill-rule:nonzero;stroke:none"
           d="m 15317.3,5009.2 c 0,-87.07 220,-157.78 491.4,-157.78 271.3,0 491.3,70.71 491.3,157.78 0,87.07 -220,157.68 -491.3,157.68 -271.4,0 -491.4,-70.61 -491.4,-157.68" /></g><g
         transform="scale(1.09362)"
         id="g76"><path
           id="path78"
           style="fill:#efb619;fill-opacity:1;fill-rule:nonzero;stroke:none"
           d="m 15509.7,5007.78 c 0,-70.05 176.9,-126.83 395.2,-126.83 218.2,0 395.1,56.78 395.1,126.83 0,70.04 -176.9,126.91 -395.1,126.91 -218.3,0 -395.2,-56.87 -395.2,-126.91" /></g><g
         transform="scale(1.08646)"
         id="g80"><path
           id="path82"
           style="fill:#fce99f;fill-opacity:1;fill-rule:nonzero;stroke:none"
           d="m 15719.4,5006.35 c 0,-51.45 130,-93.24 290.3,-93.24 160.3,0 290.3,41.79 290.3,93.24 0,51.36 -130,93.15 -290.3,93.15 -160.3,0 -290.3,-41.79 -290.3,-93.15" /></g><path
         id="path84"
         style="fill:#bd7b26;fill-opacity:1;fill-rule:nonzero;stroke:none"
         d="m 14572.3,5797.7 c 0,-134.8 340.4,-244.1 760.3,-244.1 419.9,0 760.3,109.3 760.3,244.1 0,134.8 -340.4,244 -760.3,244 -419.9,0 -760.3,-109.2 -760.3,-244" /><path
         id="path86"
         style="fill:#efb619;fill-opacity:1;fill-rule:nonzero;stroke:none"
         d="m 14725,5748.7 c 0,-107.6 272,-195.1 607.6,-195.1 335.8,0 607.9,87.5 607.9,195.1 0,107.7 -272.1,195 -607.9,195 -335.6,0 -607.6,-87.3 -607.6,-195" /><path
         id="path88"
         style="fill:#fce99f;fill-opacity:1;fill-rule:nonzero;stroke:none"
         d="m 14889.1,5695.9 c 0,-78.6 198.6,-142.3 443.5,-142.3 245,0 443.6,63.7 443.6,142.3 0,78.7 -198.6,142.5 -443.6,142.5 -244.9,0 -443.5,-63.8 -443.5,-142.5" /><path
         id="path90"
         style="fill:#bd7b26;fill-opacity:1;fill-rule:nonzero;stroke:none"
         d="m 14313.3,5035 c 0,-111.5 282,-202.1 629.8,-202.1 347.9,0 629.9,90.6 629.9,202.1 0,111.7 -282,202.2 -629.9,202.2 -347.8,0 -629.8,-90.5 -629.8,-202.2" /><path
         id="path92"
         style="fill:#efb619;fill-opacity:1;fill-rule:nonzero;stroke:none"
         d="m 14439.6,4994.5 c 0,-89.2 225.4,-161.6 503.5,-161.6 278.1,0 503.5,72.4 503.5,161.6 0,89.2 -225.4,161.7 -503.5,161.7 -278.1,0 -503.5,-72.5 -503.5,-161.7" /><path
         id="path94"
         style="fill:#fce99f;fill-opacity:1;fill-rule:nonzero;stroke:none"
         d="m 14575.7,4950.7 c 0,-65 164.5,-117.8 367.4,-117.8 203,0 367.5,52.8 367.5,117.8 0,65.2 -164.5,118 -367.5,118 -202.9,0 -367.4,-52.8 -367.4,-118" /><path
         id="path96"
         style="fill:#bd7b26;fill-opacity:1;fill-rule:nonzero;stroke:none"
         d="m 9152.27,5035 c 0,-111.5 281.95,-202.1 629.84,-202.1 347.79,0 629.89,90.6 629.89,202.1 0,111.7 -282.1,202.2 -629.89,202.2 -347.89,0 -629.84,-90.5 -629.84,-202.2" /><path
         id="path98"
         style="fill:#efb619;fill-opacity:1;fill-rule:nonzero;stroke:none"
         d="m 9278.63,4994.5 c 0,-89.2 225.39,-161.6 503.48,-161.6 278.09,0 503.49,72.4 503.49,161.6 0,89.2 -225.4,161.7 -503.49,161.7 -278.09,0 -503.48,-72.5 -503.48,-161.7" /><path
         id="path100"
         style="fill:#fce99f;fill-opacity:1;fill-rule:nonzero;stroke:none"
         d="m 9414.65,4950.7 c 0,-65 164.53,-117.8 367.46,-117.8 202.93,0 367.39,52.8 367.39,117.8 0,65.2 -164.46,118 -367.39,118 -202.93,0 -367.46,-52.8 -367.46,-118" /><path
         id="path102"
         style="fill:#bd7b26;fill-opacity:1;fill-rule:nonzero;stroke:none"
         d="m 11633,5004.1 c 0,-130.3 328.6,-235.7 734,-235.7 405.4,0 734,105.4 734,235.7 0,130 -328.6,235.5 -734,235.5 -405.4,0 -734,-105.5 -734,-235.5" /><path
         id="path104"
         style="fill:#efb619;fill-opacity:1;fill-rule:nonzero;stroke:none"
         d="m 11780.2,4956.7 c 0,-104 262.7,-188.3 586.8,-188.3 324,0 586.7,84.3 586.7,188.3 0,103.9 -262.7,188.3 -586.7,188.3 -324.1,0 -586.8,-84.4 -586.8,-188.3" /><path
         id="path106"
         style="fill:#fce99f;fill-opacity:1;fill-rule:nonzero;stroke:none"
         d="m 11938.8,4905.8 c 0,-75.8 191.7,-137.4 428.2,-137.4 236.5,0 428.2,61.6 428.2,137.4 0,75.9 -191.7,137.4 -428.2,137.4 -236.5,0 -428.2,-61.5 -428.2,-137.4" /><path
         id="path108"
         style="fill:#bd7b26;fill-opacity:1;fill-rule:nonzero;stroke:none"
         d="m 11354.2,5981.1 c 0,-182 459.7,-329.5 1026.7,-329.5 567.1,0 1026.8,147.5 1026.8,329.5 0,182 -459.7,329.5 -1026.8,329.5 -567,0 -1026.7,-147.5 -1026.7,-329.5" /><path
         id="path110"
         style="fill:#efb619;fill-opacity:1;fill-rule:nonzero;stroke:none"
         d="m 11560.2,5915 c 0,-145.5 367.5,-263.4 820.7,-263.4 453.3,0 820.7,117.9 820.7,263.4 0,145.4 -367.4,263.4 -820.7,263.4 -453.2,0 -820.7,-118 -820.7,-263.4" /><path
         id="path112"
         style="fill:#fce99f;fill-opacity:1;fill-rule:nonzero;stroke:none"
         d="m 11781.9,5843.7 c 0,-106.1 268.2,-192.1 599,-192.1 330.8,0 598.9,86 598.9,192.1 0,106.3 -268.1,192.4 -598.9,192.4 -330.8,0 -599,-86.1 -599,-192.4" /><path
         id="path114"
         style="fill:#87d7df;fill-opacity:1;fill-rule:nonzero;stroke:none"
         d="m 12368.3,13752.4 c -746.9,0 -1450.9,-182.7 -2070.3,-505.7 -460.23,-449.9 -784.48,-999.5 -515.89,-1548.6 358.89,-733.7 5606.09,-1735.76 6437.49,-131.5 -783.2,1309.1 -2214.8,2185.8 -3851.3,2185.8" /><path
         id="path116"
         style="fill:#d5f1f2;fill-opacity:1;fill-rule:nonzero;stroke:none"
         d="m 10762.3,12818.6 c -118.5,-628.2 832.5,-1334.9 2124.1,-1578.6 1291.6,-243.6 2434.7,68.2 2553.2,696.4 118.5,628.2 -832.5,1335 -2124.1,1578.6 -1291.6,243.7 -2434.6,-68.1 -2553.2,-696.4" /></g></g></svg>