<svg width="600" height="200" viewBox="0 0 600 200" fill="none" xmlns="http://www.w3.org/2000/svg">
<path d="M69.8 113.264C64.808 113.264 60.744 111.824 57.608 108.944C54.536 106 53 102.032 53 97.04C53 90.448 55.592 85.68 60.776 82.736C63.272 81.328 66.28 80.624 69.8 80.624H137.768V93.2H72.968C69.448 93.2 67.688 94.544 67.688 97.232C67.688 99.92 69.448 101.264 72.968 101.264L123.848 101.36C128.84 101.36 132.872 102.832 135.944 105.776C139.08 108.72 140.648 112.688 140.648 117.68C140.648 124.4 138.056 129.168 132.872 131.984C130.44 133.328 127.432 134 123.848 134H53V121.424L120.68 121.52C124.2 121.52 125.96 120.144 125.96 117.392C125.96 114.704 124.2 113.36 120.68 113.36L69.8 113.264ZM221.774 80.624C232.718 80.624 240.238 84.656 244.334 92.72C246.382 96.752 247.406 101.616 247.406 107.312C247.406 118.896 243.438 126.768 235.502 130.928C231.598 132.976 227.022 134 221.774 134H168.782V155.312H152.75V80.624H221.774ZM219.662 120.656C223.374 120.656 226.19 119.312 228.11 116.624C229.774 114.32 230.606 111.216 230.606 107.312C230.606 103.408 229.774 100.304 228.11 98C226.19 95.312 223.374 93.968 219.662 93.968H168.782V120.656H219.662ZM265.994 93.2V80.624H330.026C336.362 80.624 341.386 82.288 345.098 85.616C347.402 87.664 348.97 90.064 349.802 92.816C350.378 94.864 350.666 97.744 350.666 101.456V134H279.146C273.898 134 269.77 132.56 266.762 129.68C263.754 126.8 262.25 122.768 262.25 117.584C262.25 112.4 263.754 108.4 266.762 105.584C269.834 102.704 273.962 101.264 279.146 101.264H334.634V100.784C334.634 96.816 333.162 94.416 330.218 93.584C329.322 93.328 327.946 93.2 326.09 93.2H265.994ZM334.634 121.424V113.264H283.37C279.978 113.264 278.282 114.64 278.282 117.392C278.282 120.08 279.978 121.424 283.37 121.424H334.634ZM450.19 80.624V93.968H395.182C391.47 93.968 388.654 95.312 386.734 98C385.07 100.304 384.238 103.408 384.238 107.312C384.238 111.216 385.07 114.32 386.734 116.624C388.654 119.312 391.47 120.656 395.182 120.656H450.19V134H393.07C384.75 134 378.382 131.664 373.966 126.992C369.614 122.256 367.438 115.696 367.438 107.312C367.438 98.928 369.614 92.4 373.966 87.728C378.382 82.992 384.75 80.624 393.07 80.624H450.19ZM493.338 121.424H549.114V134H491.226C482.906 134 476.538 131.664 472.122 126.992C467.77 122.256 465.594 115.696 465.594 107.312C465.594 98.928 467.77 92.4 472.122 87.728C476.538 82.992 482.906 80.624 491.226 80.624H549.114V93.2H493.338C490.394 93.2 487.962 94.032 486.042 95.696C485.146 96.464 483.994 98.256 482.586 101.072L482.49 101.264H549.114V113.264H482.49L482.586 113.552C483.866 116.304 485.018 118.096 486.042 118.928C487.962 120.592 490.394 121.424 493.338 121.424Z" fill="white"/>
</svg>
