<svg width="560" height="222" viewBox="0 0 560 222" fill="none" xmlns="http://www.w3.org/2000/svg">
<path d="M135.297 125.75C135.297 124.156 135.047 122.75 134.547 121.531C134.078 120.281 133.234 119.156 132.016 118.156C130.828 117.156 129.172 116.203 127.047 115.297C124.953 114.391 122.297 113.469 119.078 112.531C115.703 111.531 112.656 110.422 109.938 109.203C107.219 107.953 104.891 106.531 102.953 104.938C101.016 103.344 99.5312 101.516 98.5 99.4531C97.4688 97.3906 96.9531 95.0312 96.9531 92.375C96.9531 89.7188 97.5 87.2656 98.5938 85.0156C99.6875 82.7656 101.25 80.8125 103.281 79.1562C105.344 77.4688 107.797 76.1562 110.641 75.2188C113.484 74.2812 116.656 73.8125 120.156 73.8125C125.281 73.8125 129.625 74.7969 133.188 76.7656C136.781 78.7031 139.516 81.25 141.391 84.4062C143.266 87.5312 144.203 90.875 144.203 94.4375H135.203C135.203 91.875 134.656 89.6094 133.562 87.6406C132.469 85.6406 130.812 84.0781 128.594 82.9531C126.375 81.7969 123.562 81.2188 120.156 81.2188C116.938 81.2188 114.281 81.7031 112.188 82.6719C110.094 83.6406 108.531 84.9531 107.5 86.6094C106.5 88.2656 106 90.1562 106 92.2812C106 93.7188 106.297 95.0312 106.891 96.2188C107.516 97.375 108.469 98.4531 109.75 99.4531C111.062 100.453 112.719 101.375 114.719 102.219C116.75 103.062 119.172 103.875 121.984 104.656C125.859 105.75 129.203 106.969 132.016 108.312C134.828 109.656 137.141 111.172 138.953 112.859C140.797 114.516 142.156 116.406 143.031 118.531C143.938 120.625 144.391 123 144.391 125.656C144.391 128.438 143.828 130.953 142.703 133.203C141.578 135.453 139.969 137.375 137.875 138.969C135.781 140.562 133.266 141.797 130.328 142.672C127.422 143.516 124.172 143.938 120.578 143.938C117.422 143.938 114.312 143.5 111.25 142.625C108.219 141.75 105.453 140.438 102.953 138.688C100.484 136.938 98.5 134.781 97 132.219C95.5312 129.625 94.7969 126.625 94.7969 123.219H103.797C103.797 125.562 104.25 127.578 105.156 129.266C106.062 130.922 107.297 132.297 108.859 133.391C110.453 134.484 112.25 135.297 114.25 135.828C116.281 136.328 118.391 136.578 120.578 136.578C123.734 136.578 126.406 136.141 128.594 135.266C130.781 134.391 132.438 133.141 133.562 131.516C134.719 129.891 135.297 127.969 135.297 125.75ZM181.094 116.234H162.859V108.875H181.094C184.625 108.875 187.484 108.312 189.672 107.188C191.859 106.062 193.453 104.5 194.453 102.5C195.484 100.5 196 98.2188 196 95.6562C196 93.3125 195.484 91.1094 194.453 89.0469C193.453 86.9844 191.859 85.3281 189.672 84.0781C187.484 82.7969 184.625 82.1562 181.094 82.1562H164.969V143H155.922V74.75H181.094C186.25 74.75 190.609 75.6406 194.172 77.4219C197.734 79.2031 200.438 81.6719 202.281 84.8281C204.125 87.9531 205.047 91.5312 205.047 95.5625C205.047 99.9375 204.125 103.672 202.281 106.766C200.438 109.859 197.734 112.219 194.172 113.844C190.609 115.438 186.25 116.234 181.094 116.234Z" fill="white"/>
<path d="M321.188 80.7969L298.594 143H289.359L315.375 74.75H321.328L321.188 80.7969ZM340.125 143L317.484 80.7969L317.344 74.75H323.297L349.406 143H340.125ZM338.953 117.734V125.141H300.609V117.734H338.953ZM399.188 121.297H408.188C407.719 125.609 406.484 129.469 404.484 132.875C402.484 136.281 399.656 138.984 396 140.984C392.344 142.953 387.781 143.938 382.312 143.938C378.312 143.938 374.672 143.188 371.391 141.688C368.141 140.188 365.344 138.062 363 135.312C360.656 132.531 358.844 129.203 357.562 125.328C356.312 121.422 355.688 117.078 355.688 112.297V105.5C355.688 100.719 356.312 96.3906 357.562 92.5156C358.844 88.6094 360.672 85.2656 363.047 82.4844C365.453 79.7031 368.344 77.5625 371.719 76.0625C375.094 74.5625 378.891 73.8125 383.109 73.8125C388.266 73.8125 392.625 74.7812 396.188 76.7188C399.75 78.6562 402.516 81.3438 404.484 84.7812C406.484 88.1875 407.719 92.1406 408.188 96.6406H399.188C398.75 93.4531 397.938 90.7188 396.75 88.4375C395.562 86.125 393.875 84.3438 391.688 83.0938C389.5 81.8438 386.641 81.2188 383.109 81.2188C380.078 81.2188 377.406 81.7969 375.094 82.9531C372.812 84.1094 370.891 85.75 369.328 87.875C367.797 90 366.641 92.5469 365.859 95.5156C365.078 98.4844 364.688 101.781 364.688 105.406V112.297C364.688 115.641 365.031 118.781 365.719 121.719C366.438 124.656 367.516 127.234 368.953 129.453C370.391 131.672 372.219 133.422 374.438 134.703C376.656 135.953 379.281 136.578 382.312 136.578C386.156 136.578 389.219 135.969 391.5 134.75C393.781 133.531 395.5 131.781 396.656 129.5C397.844 127.219 398.688 124.484 399.188 121.297ZM463.875 135.641V143H427.734V135.641H463.875ZM429.562 74.75V143H420.516V74.75H429.562ZM459.094 104.094V111.453H427.734V104.094H459.094ZM463.406 74.75V82.1562H427.734V74.75H463.406Z" fill="white"/>
<path d="M163 117.5H272C280.247 110.965 284.36 105.349 284.064 98.5C283.793 92.2432 283.5 80 272 75H217.5H163V117.5Z" fill="white"/>
<path d="M168 82V111H271.5C281.916 98.6506 281.105 92.3809 271.5 82H168Z" fill="black" stroke="black"/>
</svg>
