<svg width="593" height="331" viewBox="0 0 593 331" fill="none" xmlns="http://www.w3.org/2000/svg">
<rect width="593" height="331" fill="white" fill-opacity="0.09"/>
<path d="M152.297 180.75C152.297 179.156 152.047 177.75 151.547 176.531C151.078 175.281 150.234 174.156 149.016 173.156C147.828 172.156 146.172 171.203 144.047 170.297C141.953 169.391 139.297 168.469 136.078 167.531C132.703 166.531 129.656 165.422 126.938 164.203C124.219 162.953 121.891 161.531 119.953 159.938C118.016 158.344 116.531 156.516 115.5 154.453C114.469 152.391 113.953 150.031 113.953 147.375C113.953 144.719 114.5 142.266 115.594 140.016C116.688 137.766 118.25 135.812 120.281 134.156C122.344 132.469 124.797 131.156 127.641 130.219C130.484 129.281 133.656 128.812 137.156 128.812C142.281 128.812 146.625 129.797 150.188 131.766C153.781 133.703 156.516 136.25 158.391 139.406C160.266 142.531 161.203 145.875 161.203 149.438H152.203C152.203 146.875 151.656 144.609 150.562 142.641C149.469 140.641 147.812 139.078 145.594 137.953C143.375 136.797 140.562 136.219 137.156 136.219C133.938 136.219 131.281 136.703 129.188 137.672C127.094 138.641 125.531 139.953 124.5 141.609C123.5 143.266 123 145.156 123 147.281C123 148.719 123.297 150.031 123.891 151.219C124.516 152.375 125.469 153.453 126.75 154.453C128.062 155.453 129.719 156.375 131.719 157.219C133.75 158.062 136.172 158.875 138.984 159.656C142.859 160.75 146.203 161.969 149.016 163.312C151.828 164.656 154.141 166.172 155.953 167.859C157.797 169.516 159.156 171.406 160.031 173.531C160.938 175.625 161.391 178 161.391 180.656C161.391 183.438 160.828 185.953 159.703 188.203C158.578 190.453 156.969 192.375 154.875 193.969C152.781 195.562 150.266 196.797 147.328 197.672C144.422 198.516 141.172 198.938 137.578 198.938C134.422 198.938 131.312 198.5 128.25 197.625C125.219 196.75 122.453 195.438 119.953 193.688C117.484 191.938 115.5 189.781 114 187.219C112.531 184.625 111.797 181.625 111.797 178.219H120.797C120.797 180.562 121.25 182.578 122.156 184.266C123.062 185.922 124.297 187.297 125.859 188.391C127.453 189.484 129.25 190.297 131.25 190.828C133.281 191.328 135.391 191.578 137.578 191.578C140.734 191.578 143.406 191.141 145.594 190.266C147.781 189.391 149.438 188.141 150.562 186.516C151.719 184.891 152.297 182.969 152.297 180.75ZM198.094 171.234H179.859V163.875H198.094C201.625 163.875 204.484 163.312 206.672 162.188C208.859 161.062 210.453 159.5 211.453 157.5C212.484 155.5 213 153.219 213 150.656C213 148.312 212.484 146.109 211.453 144.047C210.453 141.984 208.859 140.328 206.672 139.078C204.484 137.797 201.625 137.156 198.094 137.156H181.969V198H172.922V129.75H198.094C203.25 129.75 207.609 130.641 211.172 132.422C214.734 134.203 217.438 136.672 219.281 139.828C221.125 142.953 222.047 146.531 222.047 150.562C222.047 154.938 221.125 158.672 219.281 161.766C217.438 164.859 214.734 167.219 211.172 168.844C207.609 170.438 203.25 171.234 198.094 171.234Z" fill="white"/>
<path d="M338.188 135.797L315.594 198H306.359L332.375 129.75H338.328L338.188 135.797ZM357.125 198L334.484 135.797L334.344 129.75H340.297L366.406 198H357.125ZM355.953 172.734V180.141H317.609V172.734H355.953ZM416.188 176.297H425.188C424.719 180.609 423.484 184.469 421.484 187.875C419.484 191.281 416.656 193.984 413 195.984C409.344 197.953 404.781 198.938 399.312 198.938C395.312 198.938 391.672 198.188 388.391 196.688C385.141 195.188 382.344 193.062 380 190.312C377.656 187.531 375.844 184.203 374.562 180.328C373.312 176.422 372.688 172.078 372.688 167.297V160.5C372.688 155.719 373.312 151.391 374.562 147.516C375.844 143.609 377.672 140.266 380.047 137.484C382.453 134.703 385.344 132.562 388.719 131.062C392.094 129.562 395.891 128.812 400.109 128.812C405.266 128.812 409.625 129.781 413.188 131.719C416.75 133.656 419.516 136.344 421.484 139.781C423.484 143.188 424.719 147.141 425.188 151.641H416.188C415.75 148.453 414.938 145.719 413.75 143.438C412.562 141.125 410.875 139.344 408.688 138.094C406.5 136.844 403.641 136.219 400.109 136.219C397.078 136.219 394.406 136.797 392.094 137.953C389.812 139.109 387.891 140.75 386.328 142.875C384.797 145 383.641 147.547 382.859 150.516C382.078 153.484 381.688 156.781 381.688 160.406V167.297C381.688 170.641 382.031 173.781 382.719 176.719C383.438 179.656 384.516 182.234 385.953 184.453C387.391 186.672 389.219 188.422 391.438 189.703C393.656 190.953 396.281 191.578 399.312 191.578C403.156 191.578 406.219 190.969 408.5 189.75C410.781 188.531 412.5 186.781 413.656 184.5C414.844 182.219 415.688 179.484 416.188 176.297ZM480.875 190.641V198H444.734V190.641H480.875ZM446.562 129.75V198H437.516V129.75H446.562ZM476.094 159.094V166.453H444.734V159.094H476.094ZM480.406 129.75V137.156H444.734V129.75H480.406Z" fill="white"/>
<path d="M180 172.5H289C297.247 165.965 301.36 160.349 301.064 153.5C300.793 147.243 300.5 135 289 130H234.5H180V172.5Z" fill="white"/>
<path d="M185 137V166H288.5C298.916 153.651 298.105 147.381 288.5 137H185Z" fill="black" stroke="black"/>
</svg>
