<?xml version="1.0" encoding="UTF-8" standalone="no"?>
<svg
   xmlns:dc="http://purl.org/dc/elements/1.1/"
   xmlns:cc="http://creativecommons.org/ns#"
   xmlns:rdf="http://www.w3.org/1999/02/22-rdf-syntax-ns#"
   xmlns:svg="http://www.w3.org/2000/svg"
   xmlns="http://www.w3.org/2000/svg"
   viewBox="0 0 2333.3333 1306.6667"
   height="1306.6667"
   width="2333.3333"
   xml:space="preserve"
   id="svg2"
   version="1.1"><metadata
     id="metadata8"><rdf:RDF><cc:Work
         rdf:about=""><dc:format>image/svg+xml</dc:format><dc:type
           rdf:resource="http://purl.org/dc/dcmitype/StillImage" /></cc:Work></rdf:RDF></metadata><defs
     id="defs6" /><g
     transform="matrix(1.3333333,0,0,-1.3333333,0,1306.6667)"
     id="g10"><g
       transform="scale(0.1)"
       id="g12"><g
         transform="scale(1.07362)"
         id="g14"><path
           id="path16"
           style="fill:#41236c;fill-opacity:1;fill-rule:evenodd;stroke:none"
           d="M 0,9128 H 16300 V 0 H 0 v 9128" /></g><path
         id="path18"
         style="fill:#492376;fill-opacity:1;fill-rule:evenodd;stroke:none"
         d="m 8750,1681.75 c 1772.8,0 3218.2,1445.5 3218.2,3218.25 0,1772.4 -1445.4,3218.25 -3218.2,3218.25 C 6977.6,8118.25 5531.75,6672.4 5531.75,4900 5531.75,3127.25 6977.6,1681.75 8750,1681.75 v 0" /><path
         id="path20"
         style="fill:#4f247d;fill-opacity:1;fill-rule:evenodd;stroke:none"
         d="m 8750,2115.4 c 1533.7,0 2784.6,1250.9 2784.6,2784.6 0,1533.7 -1250.9,2784.6 -2784.6,2784.6 -1533.7,0 -2784.6,-1250.9 -2784.6,-2784.6 0,-1533.7 1250.9,-2784.6 2784.6,-2784.6 v 0" /><path
         id="path22"
         style="fill:#582488;fill-opacity:1;fill-rule:evenodd;stroke:none"
         d="m 8750,2788.1 c 1163.05,0 2111.9,948.85 2111.9,2111.9 0,1163.05 -948.85,2111.9 -2111.9,2111.9 -1163.05,0 -2111.9,-948.85 -2111.9,-2111.9 0,-1163.05 948.85,-2111.9 2111.9,-2111.9 v 0" /><path
         id="path24"
         style="fill:#63228b;fill-opacity:1;fill-rule:evenodd;stroke:none"
         d="m 8750,3455.2 c 795.9,0 1444.8,648.9 1444.8,1444.8 0,795.55 -648.9,1444.8 -1444.8,1444.8 -795.55,0 -1444.8,-649.25 -1444.8,-1444.8 0,-795.9 649.25,-1444.8 1444.8,-1444.8 v 0" /><path
         id="path26"
         style="fill:#4a226f;fill-opacity:1;fill-rule:evenodd;stroke:none"
         d="m 2158.45,6809.25 c 666.05,0 1209.25,543.55 1209.25,1209.6 0,666.05 -543.2,1209.25 -1209.25,1209.25 -666.05,0 -1209.598,-543.2 -1209.598,-1209.25 0,-666.05 543.548,-1209.6 1209.598,-1209.6 v 0" /><path
         id="path28"
         style="fill:#502172;fill-opacity:1;fill-rule:evenodd;stroke:none"
         d="m 2158.45,6972.35 c 576.1,0 1046.15,470.05 1046.15,1046.5 0,576.1 -470.05,1046.15 -1046.15,1046.15 -576.45,0 -1046.5,-470.05 -1046.5,-1046.15 0,-576.45 470.05,-1046.5 1046.5,-1046.5 v 0" /><path
         id="path30"
         style="fill:#5b2077;fill-opacity:1;fill-rule:evenodd;stroke:none"
         d="m 2158.45,7225.05 c 436.8,0 793.45,356.65 793.45,793.8 0,436.8 -356.65,793.45 -793.45,793.45 -437.15,0 -793.8,-356.65 -793.8,-793.45 0,-437.15 356.65,-793.8 793.8,-793.8 v 0" /><path
         id="path32"
         style="fill:#681f7c;fill-opacity:1;fill-rule:evenodd;stroke:none"
         d="m 2158.45,7475.65 c 298.9,0 542.85,243.95 542.85,543.2 0,298.9 -243.95,542.85 -542.85,542.85 -299.25,0 -543.2,-243.95 -543.2,-542.85 0,-299.25 243.95,-543.2 543.2,-543.2 v 0" /><g
         transform="scale(1.05747)"
         id="g34"><path
           id="path36"
           style="fill:#3e246c;fill-opacity:1;fill-rule:evenodd;stroke:none"
           d="m 14606.1,196.271 c 932.9,0 1693.9,760.916 1693.9,1693.949 0,933.35 -761,1694.27 -1693.9,1694.27 -933.4,0 -1694.3,-760.92 -1694.3,-1694.27 0,-933.033 760.9,-1693.949 1694.3,-1693.949 v 0" /></g><g
         transform="scale(1.04266)"
         id="g38"><path
           id="path40"
           style="fill:#3a2970;fill-opacity:1;fill-rule:evenodd;stroke:none"
           d="m 14813.6,430.679 c 818.8,0 1486.4,667.671 1486.4,1486.401 0,819.06 -667.6,1486.73 -1486.4,1486.73 -819.1,0 -1486.7,-667.67 -1486.7,-1486.73 0,-818.73 667.6,-1486.401 1486.7,-1486.401 v 0" /></g><g
         transform="scale(1.01968)"
         id="g42"><path
           id="path44"
           style="fill:#2f3475;fill-opacity:1;fill-rule:evenodd;stroke:none"
           d="m 15147.4,807.655 c 635,0 1152.6,517.615 1152.6,1152.615 0,635 -517.6,1152.96 -1152.6,1152.96 -635,0 -1152.9,-517.96 -1152.9,-1152.96 0,-635 517.9,-1152.615 1152.9,-1152.615 v 0" /></g><path
         id="path46"
         style="fill:#283978;fill-opacity:1;fill-rule:evenodd;stroke:none"
         d="m 15445.5,1194.9 c 442.8,0 804,361.2 804,803.95 0,443.1 -361.2,804.3 -804,804.3 -443.1,0 -804.3,-361.2 -804.3,-804.3 0,-442.75 361.2,-803.95 804.3,-803.95 v 0" /><path
         id="path48"
         style="fill:#4a226f;fill-opacity:1;fill-rule:evenodd;stroke:none"
         d="m 14579.6,7289.8 c 251.7,0 457.1,205.45 457.1,457.1 0,252 -205.4,457.45 -457.1,457.45 -251.6,0 -457.1,-205.45 -457.1,-457.45 0,-251.65 205.5,-457.1 457.1,-457.1 v 0" /><path
         id="path50"
         style="fill:#502172;fill-opacity:1;fill-rule:evenodd;stroke:none"
         d="m 14579.6,7351.4 c 217.7,0 395.5,177.8 395.5,395.5 0,218.05 -177.8,395.85 -395.5,395.85 -217.7,0 -395.5,-177.8 -395.5,-395.85 0,-217.7 177.8,-395.5 395.5,-395.5 v 0" /><path
         id="path52"
         style="fill:#5b2077;fill-opacity:1;fill-rule:evenodd;stroke:none"
         d="m 14579.6,7446.95 c 165.2,0 299.9,134.75 299.9,299.95 0,165.2 -134.7,299.95 -299.9,299.95 -165.2,0 -300,-134.75 -300,-299.95 0,-165.2 134.8,-299.95 300,-299.95 v 0" /><path
         id="path54"
         style="fill:#681f7c;fill-opacity:1;fill-rule:evenodd;stroke:none"
         d="m 14579.6,7541.8 c 113.1,0 205.1,92.05 205.1,205.1 0,113.05 -92,205.45 -205.1,205.45 -113,0 -205.1,-92.4 -205.1,-205.45 0,-113.05 92.1,-205.1 205.1,-205.1 v 0" /><path
         id="path56"
         style="fill:#3d266d;fill-opacity:1;fill-rule:evenodd;stroke:none"
         d="m 1600.2,406.352 c 488.6,0 887.25,398.3 887.25,887.248 0,488.6 -398.65,887.25 -887.25,887.25 -488.95,0 -887.598,-398.65 -887.598,-887.25 0,-488.948 398.648,-887.248 887.598,-887.248 v 0" /><path
         id="path58"
         style="fill:#392e70;fill-opacity:1;fill-rule:evenodd;stroke:none"
         d="m 1600.2,525.699 c 422.8,0 767.55,345.102 767.55,767.901 0,422.8 -344.75,767.55 -767.55,767.55 -423.15,0 -767.899,-344.75 -767.899,-767.55 0,-422.799 344.749,-767.901 767.899,-767.901 v 0" /><path
         id="path60"
         style="fill:#353573;fill-opacity:1;fill-rule:evenodd;stroke:none"
         d="m 1600.2,711.199 c 320.6,0 582.05,261.453 582.05,582.401 0,320.6 -261.45,582.05 -582.05,582.05 -320.95,0 -582.4,-261.45 -582.4,-582.05 0,-320.948 261.45,-582.401 582.4,-582.401 v 0" /><path
         id="path62"
         style="fill:#303e76;fill-opacity:1;fill-rule:evenodd;stroke:none"
         d="m 1600.2,895.301 c 219.1,0 398.3,178.849 398.3,398.299 0,219.45 -179.2,398.3 -398.3,398.3 -219.45,0 -398.3,-178.85 -398.3,-398.3 0,-219.45 178.85,-398.299 398.3,-398.299 v 0" /><path
         id="path64"
         style="fill:#3f236b;fill-opacity:1;fill-rule:evenodd;stroke:none"
         d="m 3285.1,5029.85 c 190.4,0 345.8,155.4 345.8,345.8 0,190.4 -155.4,345.45 -345.8,345.45 -190.05,0 -345.45,-155.05 -345.45,-345.45 0,-190.4 155.4,-345.8 345.45,-345.8 v 0" /><path
         id="path66"
         style="fill:#3d266d;fill-opacity:1;fill-rule:evenodd;stroke:none"
         d="m 3285.1,5076.4 c 164.85,0 299.25,134.4 299.25,299.25 0,164.5 -134.4,298.9 -299.25,298.9 -164.5,0 -298.9,-134.4 -298.9,-298.9 0,-164.85 134.4,-299.25 298.9,-299.25 v 0" /><path
         id="path68"
         style="fill:#3a2d70;fill-opacity:1;fill-rule:evenodd;stroke:none"
         d="m 3285.1,5148.85 c 124.95,0 226.8,101.85 226.8,226.8 0,124.95 -101.85,226.8 -226.8,226.8 -124.6,0 -226.8,-101.85 -226.8,-226.8 0,-124.95 102.2,-226.8 226.8,-226.8 v 0" /><path
         id="path70"
         style="fill:#353272;fill-opacity:1;fill-rule:evenodd;stroke:none"
         d="m 3285.1,5220.25 c 85.75,0 155.4,70 155.4,155.4 0,85.4 -69.65,155.05 -155.4,155.05 -85.4,0 -155.05,-69.65 -155.05,-155.05 0,-85.4 69.65,-155.4 155.05,-155.4 v 0" /><path
         id="path72"
         style="fill:#6c94d4;fill-opacity:1;fill-rule:evenodd;stroke:none"
         d="m 2864.4,3520.3 c 282.45,0 512.4,230.3 512.4,512.4 0,282.45 -229.95,512.4 -512.4,512.4 -282.1,0 -512.4,-229.95 -512.4,-512.4 0,-282.1 230.3,-512.4 512.4,-512.4 v 0" /><path
         id="path74"
         style="fill:#64bdec;fill-opacity:1;fill-rule:evenodd;stroke:none"
         d="m 3191.65,3638.25 c -44.45,-36.75 -95.2,-66.15 -150.15,-86.45 -135.8,0.7 -265.3,4.9 -384.3,12.25 -57.75,25.55 -109.55,61.25 -153.65,105 180.95,-19.25 402.85,-30.8 642.25,-30.8 15.4,0 30.45,0 45.85,0 z m 169.05,266 c -1.4,-5.25 -2.8,-10.85 -4.55,-16.1 -106.05,-48.65 -224,-92.4 -347.55,-127.05 -204.05,-57.75 -387.8,-80.5 -524.65,-71.4 -20.3,22.75 -38.85,47.6 -55.3,73.5 134.4,-45.5 377.65,-32.55 660.45,47.25 94.5,26.6 186.2,58.45 271.6,93.8 z m -27.3,335.65 c 3.15,-7.35 6.3,-14.7 9.1,-22.05 -132.3,-144.9 -423.15,-302.05 -753.55,-395.15 -58.8,-16.45 -116.2,-30.1 -171.15,-41.3 -22.75,40.95 -40.25,85.05 -51.45,131.95 112.35,7.7 242.9,30.8 382.9,70.35 226.1,63.35 433.3,156.8 584.15,256.2 z m -116.9,165.2 c 19.25,-18.2 37.45,-38.15 53.55,-59.15 -38.85,-0.7 -78.05,-1.05 -117.95,-1.05 -250.25,0 -480.9,12.6 -665.7,33.6 7,8.05 14.35,15.4 22.05,22.75 100.1,-4.55 206.5,-6.65 316.4,-6.65 137.9,0 269.85,3.5 391.65,10.5 v 0" /><path
         id="path76"
         style="fill:#4270c0;fill-opacity:1;fill-rule:evenodd;stroke:none"
         d="m 2574.25,4225.9 -33.95,1.4 v -23.1 l 37.1,-10.85 z m 74.2,-91.35 30.8,3.15 -1.4,-19.95 h -29.4 z m -105,-128.1 -52.5,14 -24.5,-44.8 43.05,-30.8 63.35,52.5 z m -16.8,68.25 -4.9,-15.75 15.75,-12.25 7.7,21.7 z m 95.55,311.5 -47.95,-12.25 -16.8,-60.2 66.15,-30.8 31.15,49.35 z m 342.65,-188.3 -95.55,-3.15 -20.3,-52.15 38.85,-33.95 50.75,32.2 -7.7,29.4 27.65,6.3 z m -117.25,64.75 -19.95,24.85 13.65,7.7 20.3,-6.3 2.8,-19.95 z m 109.55,148.4 -12.25,21.7 9.1,10.5 17.15,-2.8 V 4414.2 Z M 2772,3918.6 l -19.95,10.85 -10.85,-9.1 v -17.15 l 19.95,-7.7 19.95,24.85 z m -119.35,-120.75 -8.4,7.7 9.1,18.55 9.45,-7 z m 538.65,156.8 -45.5,8.4 -0.7,30.1 37.8,10.85 2.45,1.4 24.5,-19.25 -3.15,-11.55 z m 42.35,-277.2 c -93.1,-96.95 -224,-157.15 -369.25,-157.15 -282.8,0 -512.4,229.6 -512.4,512.4 0,283.15 229.6,512.4 512.4,512.4 l -168,-112.35 27.65,-47.95 -38.5,-97.3 32.2,-126.7 63.35,-36.75 7.7,-71.05 -57.05,-74.2 -109.55,18.55 -4.55,-4.55 -69.65,-124.95 51.1,-91.35 4.55,-1.4 137.55,-6.3 91,57.4 35.35,-42 43.4,-7.7 -10.85,-44.45 c 4.2,0 5.95,0 5.95,0 l 105,-9.45 c 20.3,10.15 6.3,3.15 7.7,4.55 l 66.5,74.2 -92.75,57.05 20.3,47.95 92.4,30.8 41.65,-72.45 -26.25,-64.75 31.15,-41.65 -86.45,-72.8 -33.95,10.85 -15.4,-24.5 60.2,-37.1 96.95,52.5 60.55,-9.8" /><path
         id="path78"
         style="fill:#1a82c7;fill-opacity:1;fill-rule:evenodd;stroke:none"
         d="m 2772,3918.6 -19.95,10.85 -10.85,-9.1 v -17.15 l 19.95,-7.7 19.95,24.85 z m 291.55,-141.4 21.7,24.15 -8.75,5.6 c 4.2,1.05 8.4,2.1 12.6,3.5 13.65,3.85 27.3,7.7 40.6,11.9 l -9.1,-22.4 2.8,-3.85 c -19.95,-6.3 -39.9,-12.95 -59.85,-18.9 z m -577.15,601.3 c 7,8.05 14.35,15.4 22.05,22.75 67.55,-2.8 137.55,-4.9 209.65,-5.95 l 5.95,-10.5 -10.15,-26.25 c -26.95,1.75 -52.85,3.85 -78.4,5.6 l -13.3,22.05 -47.95,-12.25 -1.05,-4.2 c -30.1,2.8 -58.8,5.6 -86.8,8.75 z m -68.6,-597.1 c -22.75,40.95 -40.25,85.05 -51.45,131.95 68.6,4.55 144.2,15.05 224.7,31.5 l -43.05,-77 27.3,-49 c -53.9,-14.7 -106.75,-27.3 -157.5,-37.45 z m 66.15,-91.7 c -20.3,22.75 -38.85,47.6 -55.3,73.5 104.65,-35.35 275.8,-35.35 479.85,4.2 l -8.05,-34.3 c -160.65,-36.75 -304.15,-50.75 -416.5,-43.4 z m 707.7,-51.45 c -44.45,-36.75 -95.2,-66.15 -150.15,-86.45 -135.8,0.7 -265.3,4.9 -384.3,12.25 -57.75,25.55 -109.55,61.25 -153.65,105 161.7,-17.5 355.6,-28.35 565.95,-30.45 l 6.65,-3.85 7,3.85 c 20.65,-0.35 41.65,-0.35 62.65,-0.35 15.4,0 30.45,0 45.85,0 v 0" /><path
         id="path80"
         style="fill:#d99bd3;fill-opacity:1;fill-rule:evenodd;stroke:none"
         d="m 2864.4,4545.1 c 283.15,0 512.4,-229.25 512.4,-512.4 0,-229.25 -150.5,-423.5 -358.4,-488.6 187.6,75.95 319.9,260.05 319.9,474.95 0,282.8 -229.25,512.4 -512.4,512.4 -53.55,0 -105.35,-8.4 -154,-23.45 59.5,23.8 124.6,37.1 192.5,37.1 v 0" /><path
         id="path82"
         style="fill:#f3616b;fill-opacity:1;fill-rule:evenodd;stroke:none"
         d="m 14375.2,3893.75 c 387.8,0 703.9,316.05 703.9,703.85 0,387.45 -316.1,703.5 -703.9,703.5 -387.4,0 -703.5,-316.05 -703.5,-703.5 0,-387.8 316.1,-703.85 703.5,-703.85 v 0" /><path
         id="path84"
         style="fill:#dd2c55;fill-opacity:1;fill-rule:evenodd;stroke:none"
         d="m 14375.2,5301.1 c 388.9,0 703.9,-315 703.9,-703.5 0,-388.85 -315,-703.85 -703.9,-703.85 -70.7,19.25 -219.8,30.8 -196,97.3 12.3,32.9 106.1,-13.3 199.1,-20.65 123.9,-9.45 254.5,16.1 268.9,56 21.3,59.85 -127.8,19.95 -299.6,29.05 -203.7,11.2 -438.2,71.05 -432.3,165.55 4.6,72.1 210.4,-20.65 412.3,-38.85 206.5,-18.55 409.5,37.8 419.6,157.5 10.6,121.8 -188.2,91 -418.2,96.25 -214.9,5.25 -487.5,78.4 -497,207.9 -9.8,140 209.7,81.55 418.3,85.75 210,4.2 408.8,71.05 372,210.7 -20.3,76.3 -144.9,28 -299.6,21 -156.4,-7.35 -342.6,26.25 -354.9,89.95 -23.1,120.75 259.3,234.5 407.4,249.9 v 0" /><path
         id="path86"
         style="fill:#d99bd3;fill-opacity:1;fill-rule:evenodd;stroke:none"
         d="m 14375.2,5301.1 c 23.1,0 45.9,-1.05 68.3,-3.15 -5.3,0 -10.6,0.35 -15.8,0.35 -388.5,0 -703.8,-315.35 -703.8,-703.85 0,-365.75 279.3,-666.4 635.9,-700.7 -381.5,8.4 -688.1,320.25 -688.1,703.85 0,388.5 315,703.5 703.5,703.5 v 0" /><g
         transform="scale(1.02445)"
         id="g88"><path
           id="path90"
           style="fill:#916fbf;fill-opacity:1;fill-rule:evenodd;stroke:none"
           d="m 13859,1808 c 1150.3,0 2122.6,-761.53 2441,-1808 h -4881.8 c 318.1,1046.47 1290.4,1808 2440.8,1808 v 0" /></g><g
         transform="scale(1.02445)"
         id="g92"><path
           id="path94"
           style="fill:#4a2889;fill-opacity:1;fill-rule:evenodd;stroke:none"
           d="M 16082,508.715 C 16172.2,349.163 16245.7,178.682 16300,0 h -4769.4 c 353.6,983.605 1295.1,1687.4 2400.8,1687.4 903.6,0 1697.2,-470.11 2150.6,-1178.685 v 0" /></g><g
         transform="scale(1.01176)"
         id="g96"><path
           id="path98"
           style="fill:#3c2576;fill-opacity:1;fill-rule:evenodd;stroke:none"
           d="m 12431.1,766.929 c 109.6,0 198.2,-89.942 198.2,-201.331 0,-111.042 -88.6,-201.331 -198.2,-201.331 -109.3,0 -198.3,90.289 -198.3,201.331 0,111.389 89,201.331 198.3,201.331 z m 474.5,-32.863 c 52.7,0 95.2,-43.242 95.2,-96.861 0,-53.272 -42.5,-96.861 -95.2,-96.861 -52.9,0 -95.5,43.589 -95.5,96.861 0,53.619 42.6,96.861 95.5,96.861 z m 1062.8,618.874 c 34.9,0 63,-28.37 63,-63.65 0,-34.94 -28.1,-63.65 -63,-63.65 -34.6,0 -62.6,28.71 -62.6,63.65 0,35.28 28,63.65 62.6,63.65 z m 181.3,205.83 c 25.2,0 45.3,-20.41 45.3,-45.66 0,-25.26 -20.1,-46.01 -45.3,-46.01 -24.9,0 -45.1,20.75 -45.1,46.01 0,25.25 20.2,45.66 45.1,45.66 z M 13436,1423.16 c 21.1,0 38.4,-17.29 38.4,-39.09 0,-21.44 -17.3,-39.09 -38.4,-39.09 -21.5,0 -38.8,17.65 -38.8,39.09 0,21.8 17.3,39.09 38.8,39.09 z M 16135.3,542.765 C 16203.4,422.036 16258.8,134.913 16300,0 h -3599.8 c 182,506.099 423.5,321.716 916.4,530.314 229.9,97.552 629.9,743.066 895.6,743.066 254.9,0 504,-177.47 726.8,-267.41 373.2,-150.828 682.2,-128.343 896.3,-463.205 v 0" /></g><path
         id="path100"
         style="fill:#93136e;fill-opacity:1;fill-rule:evenodd;stroke:none"
         d="m 5118.05,7134.75 c 84.35,0 152.95,68.6 152.95,152.95 0,84.35 -68.6,152.95 -152.95,152.95 -84.35,0 -152.95,-68.6 -152.95,-152.95 0,-84.35 68.6,-152.95 152.95,-152.95 v 0" /><path
         id="path102"
         style="fill:#d5087f;fill-opacity:1;fill-rule:evenodd;stroke:none"
         d="m 5202.05,7415.8 c 41.65,-27.65 68.95,-74.55 68.95,-128.1 0,-84.7 -68.6,-152.95 -152.95,-152.95 -6.3,0 -12.25,0.35 -18.2,1.05 -41.65,27.3 -69.3,74.55 -69.3,128.1 0,84.35 68.6,152.95 152.95,152.95 6.3,0 12.6,-0.35 18.55,-1.05 v 0" /><path
         id="path104"
         style="fill:#762795;fill-opacity:1;fill-rule:evenodd;stroke:none"
         d="m 8750,3845.8 c 580.65,0 1054.2,473.55 1054.2,1054.2 0,580.65 -473.55,1054.2 -1054.2,1054.2 -580.65,0 -1054.2,-473.55 -1054.2,-1054.2 0,-580.65 473.55,-1054.2 1054.2,-1054.2 v 0" /><path
         id="path106"
         style="fill:#863ea3;fill-opacity:1;fill-rule:evenodd;stroke:none"
         d="m 8750,4071.2 c 456.4,0 828.8,372.4 828.8,828.8 0,456.4 -372.4,828.8 -828.8,828.8 -456.4,0 -828.8,-372.4 -828.8,-828.8 0,-456.4 372.4,-828.8 828.8,-828.8 v 0" /><path
         id="path108"
         style="fill:#aa79c3;fill-opacity:1;fill-rule:evenodd;stroke:none"
         d="m 8750,4253.2 c 356.3,0 646.8,290.5 646.8,646.8 0,356.3 -290.5,646.8 -646.8,646.8 -356.3,0 -646.8,-290.5 -646.8,-646.8 0,-356.3 290.5,-646.8 646.8,-646.8 v 0" /><path
         id="path110"
         style="fill:#ffffff;fill-opacity:1;fill-rule:evenodd;stroke:none"
         d="m 8750,4340.35 c 308.35,0 559.65,251.3 559.65,559.65 0,308 -251.3,559.65 -559.65,559.65 -308,0 -559.65,-251.65 -559.65,-559.65 0,-308.35 251.65,-559.65 559.65,-559.65 v 0" /><path
         id="path112"
         style="fill:#327172;fill-opacity:1;fill-rule:evenodd;stroke:none"
         d="m 12312,7900.55 c 154.7,0 280.7,126 280.7,280.7 0,154.7 -126,281.05 -280.7,281.05 -154.8,0 -281.1,-126.35 -281.1,-281.05 0,-154.7 126.3,-280.7 281.1,-280.7 v 0" /><path
         id="path114"
         style="fill:#5ea4a2;fill-opacity:1;fill-rule:evenodd;stroke:none"
         d="m 12500.9,8286.6 c 4.3,0 7.4,-3.5 7.4,-7.35 0,-3.85 -3.1,-7.35 -7.4,-7.35 -3.8,0 -7.3,3.5 -7.3,7.35 0,3.85 3.5,7.35 7.3,7.35 z m -117.2,80.5 c 10.5,0 19.3,-8.4 19.3,-19.25 0,-10.5 -8.8,-19.25 -19.3,-19.25 -10.5,0 -19.2,8.75 -19.2,19.25 0,10.85 8.7,19.25 19.2,19.25 z m 90.7,-415.1 c -45.9,-32.55 -101.9,-51.45 -162.4,-51.45 -155.1,0 -281.1,125.65 -281.1,280.7 0,43.4 9.8,84.35 27.7,121.1 45.8,32.55 101.8,51.8 162.4,51.8 155,0 280.7,-125.65 280.7,-281.05 0,-43.4 -9.8,-84.35 -27.3,-121.1 v 0" /><path
         id="path116"
         style="fill:#327172;fill-opacity:1;fill-rule:evenodd;stroke:none"
         d="m 12130.3,8201.9 c 10.8,0 19.3,-8.75 19.3,-19.25 0,-10.5 -8.5,-19.25 -19.3,-19.25 -10.5,0 -19.2,8.75 -19.2,19.25 0,10.5 8.7,19.25 19.2,19.25 z m 264.3,17.15 c 10.5,0 19.2,-8.75 19.2,-19.25 0,-10.5 -8.7,-19.25 -19.2,-19.25 -10.9,0 -19.3,8.75 -19.3,19.25 0,10.5 8.4,19.25 19.3,19.25 z m 64.7,-219.1 c 10.5,0 19.3,-8.75 19.3,-19.25 0,-10.85 -8.8,-19.25 -19.3,-19.25 -10.5,0 -19.2,8.4 -19.2,19.25 0,10.5 8.7,19.25 19.2,19.25 z m -193.2,-45.15 c 8.1,0 14.7,-6.3 14.7,-14.35 0,-8.05 -6.6,-14.7 -14.7,-14.7 -7.7,0 -14.3,6.65 -14.3,14.7 0,8.05 6.6,14.35 14.3,14.35 z m 125.3,74.2 c 8.1,0 14.4,-6.3 14.4,-14.35 0,-8.05 -6.3,-14.7 -14.4,-14.7 -8,0 -14.3,6.65 -14.3,14.7 0,8.05 6.3,14.35 14.3,14.35 z m 42,137.55 c 4.2,0 7.4,-3.5 7.4,-7.35 0,-3.85 -3.2,-7.35 -7.4,-7.35 -3.9,0 -7,3.5 -7,7.35 0,3.85 3.1,7.35 7,7.35 z m -82.9,95.2 c 4.2,0 7.3,-3.15 7.3,-7 0,-4.2 -3.1,-7.35 -7.3,-7.35 -3.9,0 -7.4,3.15 -7.4,7.35 0,3.85 3.5,7 7.4,7 z M 12301.1,8078 c 3.8,0 7.3,-3.15 7.3,-7 0,-4.2 -3.5,-7.35 -7.3,-7.35 -3.9,0 -7.3,3.15 -7.3,7.35 0,3.85 3.4,7 7.3,7 z m -87.1,235.2 c 16.4,0 30.1,-13.3 30.1,-30.1 0,-16.8 -13.7,-30.1 -30.1,-30.1 -16.9,0 -30.1,13.3 -30.1,30.1 0,16.8 13.2,30.1 30.1,30.1 v 0" /><path
         id="path118"
         style="fill:#fbfbcc;fill-opacity:1;fill-rule:evenodd;stroke:none"
         d="m 3086.3,475.301 c 9.45,0 18.55,-2.449 26.6,-6.649 7.7,-4.55 959.7,533.748 964.95,526.399 5.6,-8.75 -936.25,-563.852 -936.25,-575.051 0,-30.801 -24.85,-55.301 -55.3,-55.301 -30.45,0 -55.3,24.5 -55.3,55.301 0,30.449 24.85,55.301 55.3,55.301 v 0" /><path
         id="path120"
         style="fill:#f5f45b;fill-opacity:1;fill-rule:evenodd;stroke:none"
         d="m 3086.3,376.602 c 23.8,0 43.05,19.597 43.05,43.398 0,23.801 -19.25,43.051 -43.05,43.051 -23.8,0 -43.4,-19.25 -43.4,-43.051 0,-23.801 19.6,-43.398 43.4,-43.398 v 0" /><path
         id="path122"
         style="fill:#fcd106;fill-opacity:1;fill-rule:evenodd;stroke:none"
         d="m 3082.8,387.102 c 16.1,0 29.05,13.296 29.05,29.05 0,16.098 -12.95,29.399 -29.05,29.399 -16.1,0 -29.05,-13.301 -29.05,-29.399 0,-15.754 12.95,-29.05 29.05,-29.05 v 0" /><path
         id="path124"
         style="fill:#fbfbcc;fill-opacity:1;fill-rule:evenodd;stroke:none"
         d="m 4268.25,1109.5 c 2.45,1.4 1467.9,852.95 1469.65,850.5 2.1,-3.15 -1456.7,-865.2 -1459.85,-866.95 -19.6,-12.25 -28.35,6.3 -9.8,16.45 v 0" /><path
         id="path126"
         style="fill:#916fbf;fill-opacity:1;fill-rule:evenodd;stroke:none"
         d="M 0,9587.55 C 909.301,8883 1494.85,7780.5 1494.85,6540.8 1494.85,5301.45 909.301,4198.6 0,3494.05 v 6093.5" /><path
         id="path128"
         style="fill:#293e95;fill-opacity:1;fill-rule:evenodd;stroke:none"
         d="M 0,3898.3 V 9529.1 C 752.5,8825.95 1223.25,7824.95 1223.25,6713.7 1223.25,5602.45 752.5,4601.45 0,3898.3 v 0" /><path
         id="path130"
         style="fill:#233a7a;fill-opacity:1;fill-rule:evenodd;stroke:none"
         d="M 0,5135.55 V 9331.7 c 188.301,-176.05 473.199,-429.45 601.301,-654.85 211.398,-371 103.25,-621.6 103.25,-1079.05 0,-270.55 249.898,-900.9 189.699,-1167.6 C 791,5971.7 660.449,5405.05 0,5135.55 v 0" /><path
         id="path132"
         style="fill:#ffffff;fill-opacity:1;fill-rule:evenodd;stroke:none"
         d="m 6440,8646.05 c 13.65,0 24.85,10.85 24.85,24.85 0,13.65 -11.2,24.5 -24.85,24.5 -13.65,0 -24.85,-10.85 -24.85,-24.5 0,-14 11.2,-24.85 24.85,-24.85 v 0" /><path
         id="path134"
         style="fill:#ffffff;fill-opacity:1;fill-rule:evenodd;stroke:none"
         d="m 4827.2,8940.75 c 13.65,0 24.85,11.2 24.85,24.85 0,13.65 -11.2,24.85 -24.85,24.85 -13.65,0 -24.85,-11.2 -24.85,-24.85 0,-13.65 11.2,-24.85 24.85,-24.85 v 0" /><path
         id="path136"
         style="fill:#ffffff;fill-opacity:1;fill-rule:evenodd;stroke:none"
         d="m 4184.95,6965.35 c 13.65,0 24.85,11.2 24.85,24.85 0,13.65 -11.2,24.5 -24.85,24.5 -13.65,0 -24.5,-10.85 -24.5,-24.5 0,-13.65 10.85,-24.85 24.5,-24.85 v 0" /><path
         id="path138"
         style="fill:#ffffff;fill-opacity:1;fill-rule:evenodd;stroke:none"
         d="m 5562.2,4456.55 c 13.65,0 24.85,11.2 24.85,24.85 0,13.65 -11.2,24.85 -24.85,24.85 -13.65,0 -24.85,-11.2 -24.85,-24.85 0,-13.65 11.2,-24.85 24.85,-24.85 v 0" /><path
         id="path140"
         style="fill:#ffffff;fill-opacity:1;fill-rule:evenodd;stroke:none"
         d="m 4234.3,3236.45 c 13.65,0 24.85,10.85 24.85,24.5 0,13.65 -11.2,24.85 -24.85,24.85 -13.65,0 -24.85,-11.2 -24.85,-24.85 0,-13.65 11.2,-24.5 24.85,-24.5 v 0" /><path
         id="path142"
         style="fill:#ffffff;fill-opacity:1;fill-rule:evenodd;stroke:none"
         d="m 4753,3137.4 c 13.65,0 24.85,11.2 24.85,24.85 0,13.65 -11.2,24.85 -24.85,24.85 -13.65,0 -24.85,-11.2 -24.85,-24.85 0,-13.65 11.2,-24.85 24.85,-24.85 v 0" /><path
         id="path144"
         style="fill:#ffffff;fill-opacity:1;fill-rule:evenodd;stroke:none"
         d="m 6901.3,1285.55 c 13.65,0 24.85,10.85 24.85,24.85 0,13.65 -11.2,24.5 -24.85,24.5 -13.65,0 -24.85,-10.85 -24.85,-24.5 0,-14 11.2,-24.85 24.85,-24.85 v 0" /><path
         id="path146"
         style="fill:#ffffff;fill-opacity:1;fill-rule:evenodd;stroke:none"
         d="m 6234.55,841.051 c 13.65,0 24.85,10.851 24.85,24.851 0,13.649 -11.2,24.496 -24.85,24.496 -13.65,0 -24.85,-10.847 -24.85,-24.496 0,-14 11.2,-24.851 24.85,-24.851 v 0" /><path
         id="path148"
         style="fill:#ffffff;fill-opacity:1;fill-rule:evenodd;stroke:none"
         d="m 1814.4,2865.8 c 13.65,0 24.85,11.2 24.85,24.85 0,13.65 -11.2,24.85 -24.85,24.85 -13.65,0 -24.85,-11.2 -24.85,-24.85 0,-13.65 11.2,-24.85 24.85,-24.85 v 0" /><path
         id="path150"
         style="fill:#ffffff;fill-opacity:1;fill-rule:evenodd;stroke:none"
         d="m 8012.55,3335.15 c 13.65,0 24.85,11.2 24.85,24.85 0,13.65 -11.2,24.5 -24.85,24.5 -13.65,0 -24.85,-10.85 -24.85,-24.5 0,-13.65 11.2,-24.85 24.85,-24.85 v 0" /><path
         id="path152"
         style="fill:#ffffff;fill-opacity:1;fill-rule:evenodd;stroke:none"
         d="m 10309.3,2297.75 c 13.6,0 24.8,11.2 24.8,24.85 0,13.65 -11.2,24.85 -24.8,24.85 -13.7,0 -24.9,-11.2 -24.9,-24.85 0,-13.65 11.2,-24.85 24.9,-24.85 v 0" /><path
         id="path154"
         style="fill:#ffffff;fill-opacity:1;fill-rule:evenodd;stroke:none"
         d="m 12457.6,4322.85 c 13.6,0 24.8,11.2 24.8,24.85 0,13.65 -11.2,24.85 -24.8,24.85 -13.7,0 -24.9,-11.2 -24.9,-24.85 0,-13.65 11.2,-24.85 24.9,-24.85 v 0" /><path
         id="path156"
         style="fill:#ffffff;fill-opacity:1;fill-rule:evenodd;stroke:none"
         d="m 14038.2,6273.75 c 13.6,0 24.8,11.2 24.8,24.85 0,13.65 -11.2,24.85 -24.8,24.85 -13.7,0 -24.9,-11.2 -24.9,-24.85 0,-13.65 11.2,-24.85 24.9,-24.85 v 0" /><path
         id="path158"
         style="fill:#ffffff;fill-opacity:1;fill-rule:evenodd;stroke:none"
         d="m 13643,7212.1 c 13.6,0 24.9,11.2 24.9,24.85 0,13.65 -11.3,24.85 -24.9,24.85 -13.7,0 -24.9,-11.2 -24.9,-24.85 0,-13.65 11.2,-24.85 24.9,-24.85 v 0" /><path
         id="path160"
         style="fill:#ffffff;fill-opacity:1;fill-rule:evenodd;stroke:none"
         d="m 14759.9,7722.4 c 13.6,0 24.8,10.85 24.8,24.5 0,13.65 -11.2,24.85 -24.8,24.85 -13.7,0 -24.5,-11.2 -24.5,-24.85 0,-13.65 10.8,-24.5 24.5,-24.5 v 0" /><path
         id="path162"
         style="fill:#ffffff;fill-opacity:1;fill-rule:evenodd;stroke:none"
         d="m 15544.6,7780.15 c 13.6,0 24.8,11.2 24.8,24.85 0,13.65 -11.2,24.5 -24.8,24.5 -13.7,0 -24.9,-10.85 -24.9,-24.5 0,-13.65 11.2,-24.85 24.9,-24.85 v 0" /><path
         id="path164"
         style="fill:#ffffff;fill-opacity:1;fill-rule:evenodd;stroke:none"
         d="m 14554.7,8179.5 c 13.7,0 24.9,10.85 24.9,24.85 0,13.65 -11.2,24.5 -24.9,24.5 -13.6,0 -24.8,-10.85 -24.8,-24.5 0,-14 11.2,-24.85 24.8,-24.85 v 0" /><path
         id="path166"
         style="fill:#ffffff;fill-opacity:1;fill-rule:evenodd;stroke:none"
         d="m 13075,9360.4 c 13.6,0 24.8,11.2 24.8,24.85 0,13.65 -11.2,24.85 -24.8,24.85 -13.7,0 -24.9,-11.2 -24.9,-24.85 0,-13.65 11.2,-24.85 24.9,-24.85 v 0" /><g
         transform="scale(1.02941)"
         id="g168"><path
           id="path170"
           style="fill:#ffffff;fill-opacity:1;fill-rule:evenodd;stroke:none"
           d="m 16275.8,9092.97 c 13.3,0 24.2,10.88 24.2,24.14 0,13.26 -10.9,24.14 -24.2,24.14 -13.2,0 -24.2,-10.88 -24.2,-24.14 0,-13.26 11,-24.14 24.2,-24.14 v 0" /></g><g
         transform="scale(1.02336)"
         id="g172"><path
           id="path174"
           style="fill:#ffffff;fill-opacity:1;fill-rule:evenodd;stroke:none"
           d="m 16275.7,7288.96 c 13.4,0 24.3,10.6 24.3,23.94 0,13.34 -10.9,24.29 -24.3,24.29 -13.3,0 -24.3,-10.95 -24.3,-24.29 0,-13.34 11,-23.94 24.3,-23.94 v 0" /></g><path
         id="path176"
         style="fill:#ffffff;fill-opacity:1;fill-rule:evenodd;stroke:none"
         d="m 15421,5038.95 c 13.7,0 24.9,11.2 24.9,24.85 0,13.65 -11.2,24.85 -24.9,24.85 -13.6,0 -24.8,-11.2 -24.8,-24.85 0,-13.65 11.2,-24.85 24.8,-24.85 v 0" /><g
         transform="scale(1.01577)"
         id="g178"><path
           id="path180"
           style="fill:#ffffff;fill-opacity:1;fill-rule:evenodd;stroke:none"
           d="m 16275.6,3915.29 c 13.4,0 24.4,11.03 24.4,24.47 0,13.44 -11,24.46 -24.4,24.46 -13.5,0 -24.5,-11.02 -24.5,-24.46 0,-13.44 11,-24.47 24.5,-24.47 v 0" /></g><path
         id="path182"
         style="fill:#ffffff;fill-opacity:1;fill-rule:evenodd;stroke:none"
         d="m 15939.7,2223.9 c 13.7,0 24.5,11.2 24.5,24.85 0,13.65 -10.8,24.5 -24.5,24.5 -13.7,0 -24.9,-10.85 -24.9,-24.5 0,-13.65 11.2,-24.85 24.9,-24.85 v 0" /><path
         id="path184"
         style="fill:#ffffff;fill-opacity:1;fill-rule:evenodd;stroke:none"
         d="m 12754,2371.95 c 13.7,0 24.9,11.2 24.9,24.85 0,13.65 -11.2,24.85 -24.9,24.85 -13.6,0 -24.8,-11.2 -24.8,-24.85 0,-13.65 11.2,-24.85 24.8,-24.85 v 0" /><path
         id="path186"
         style="fill:#ffffff;fill-opacity:1;fill-rule:evenodd;stroke:none"
         d="m 11445.4,1162 c 13.6,0 24.8,10.85 24.8,24.5 0,13.65 -11.2,24.85 -24.8,24.85 -13.7,0 -24.9,-11.2 -24.9,-24.85 0,-13.65 11.2,-24.5 24.9,-24.5 v 0" /><path
         id="path188"
         style="fill:#ffffff;fill-opacity:1;fill-rule:evenodd;stroke:none"
         d="m 10284.8,8520.75 c 13.6,0 24.5,11.2 24.5,24.85 0,13.65 -10.9,24.85 -24.5,24.85 -13.7,0 -24.9,-11.2 -24.9,-24.85 0,-13.65 11.2,-24.85 24.9,-24.85 v 0" /><path
         id="path190"
         style="fill:#ffffff;fill-opacity:1;fill-rule:evenodd;stroke:none"
         d="m 1345.4,9236.85 c 13.65,0 24.5,11.2 24.5,24.85 0,13.65 -10.85,24.85 -24.5,24.85 -14,0 -24.85,-11.2 -24.85,-24.85 0,-13.65 10.85,-24.85 24.85,-24.85 v 0" /><path
         id="path192"
         style="fill:#ffffff;fill-opacity:1;fill-rule:evenodd;stroke:none"
         d="m 1487.15,9105.25 c 22.75,0 40.95,18.2 40.95,40.95 0,22.4 -18.2,40.95 -40.95,40.95 -22.4,0 -40.95,-18.55 -40.95,-40.95 0,-22.75 18.55,-40.95 40.95,-40.95 v 0" /><path
         id="path194"
         style="fill:#ffffff;fill-opacity:1;fill-rule:evenodd;stroke:none"
         d="m 2830.8,9437.05 c 22.4,0 40.95,18.2 40.95,40.95 0,22.4 -18.55,40.95 -40.95,40.95 -22.75,0 -40.95,-18.55 -40.95,-40.95 0,-22.75 18.2,-40.95 40.95,-40.95 v 0" /><path
         id="path196"
         style="fill:#ffffff;fill-opacity:1;fill-rule:evenodd;stroke:none"
         d="m 3324.65,8967.7 c 22.4,0 40.95,18.55 40.95,40.95 0,22.75 -18.55,40.95 -40.95,40.95 -22.75,0 -40.95,-18.2 -40.95,-40.95 0,-22.4 18.2,-40.95 40.95,-40.95 v 0" /><path
         id="path198"
         style="fill:#ffffff;fill-opacity:1;fill-rule:evenodd;stroke:none"
         d="m 6448.4,9202.2 c 22.75,0 40.95,18.55 40.95,40.95 0,22.75 -18.2,41.3 -40.95,41.3 -22.4,0 -40.95,-18.55 -40.95,-41.3 0,-22.4 18.55,-40.95 40.95,-40.95 v 0" /><path
         id="path200"
         style="fill:#ffffff;fill-opacity:1;fill-rule:evenodd;stroke:none"
         d="m 2698.85,5975.9 c 22.4,0 40.95,18.2 40.95,40.95 0,22.4 -18.55,40.95 -40.95,40.95 -22.75,0 -40.95,-18.55 -40.95,-40.95 0,-22.75 18.2,-40.95 40.95,-40.95 v 0" /><path
         id="path202"
         style="fill:#ffffff;fill-opacity:1;fill-rule:evenodd;stroke:none"
         d="m 5761,2543.45 c 22.4,0 40.95,18.2 40.95,40.95 0,22.4 -18.55,40.95 -40.95,40.95 -22.75,0 -40.95,-18.55 -40.95,-40.95 0,-22.75 18.2,-40.95 40.95,-40.95 v 0" /><path
         id="path204"
         style="fill:#ffffff;fill-opacity:1;fill-rule:evenodd;stroke:none"
         d="m 575.051,962.852 c 22.75,0 40.949,18.55 40.949,40.948 0,22.4 -18.199,40.95 -40.949,40.95 -22.403,0 -40.949,-18.55 -40.949,-40.95 0,-22.398 18.546,-40.948 40.949,-40.948 v 0" /><path
         id="path206"
         style="fill:#ffffff;fill-opacity:1;fill-rule:evenodd;stroke:none"
         d="m 10057.6,641.902 c 22.8,0 41,18.2 41,40.95 0,22.398 -18.2,40.949 -41,40.949 -22.4,0 -41,-18.551 -41,-40.949 0,-22.75 18.6,-40.95 41,-40.95 v 0" /><path
         id="path208"
         style="fill:#ffffff;fill-opacity:1;fill-rule:evenodd;stroke:none"
         d="m 11963.7,4988.2 c 22.8,0 41,18.55 41,40.95 0,22.75 -18.2,40.95 -41,40.95 -22.4,0 -40.9,-18.2 -40.9,-40.95 0,-22.4 18.5,-40.95 40.9,-40.95 v 0" /><path
         id="path210"
         style="fill:#ffffff;fill-opacity:1;fill-rule:evenodd;stroke:none"
         d="m 15916.3,2994.6 c 22.7,0 40.9,18.2 40.9,40.95 0,22.4 -18.2,40.95 -40.9,40.95 -22.4,0 -41,-18.55 -41,-40.95 0,-22.75 18.6,-40.95 41,-40.95 v 0" /><path
         id="path212"
         style="fill:#ffffff;fill-opacity:1;fill-rule:evenodd;stroke:none"
         d="m 9388.75,7528.85 c 22.75,0 40.95,18.55 40.95,40.95 0,22.75 -18.2,40.95 -40.95,40.95 -22.4,0 -40.95,-18.2 -40.95,-40.95 0,-22.4 18.55,-40.95 40.95,-40.95 v 0" /><path
         id="path214"
         style="fill:#ffffff;fill-opacity:1;fill-rule:evenodd;stroke:none"
         d="m 15861,9095.1 c 22.4,0 40.9,18.55 40.9,40.95 0,22.75 -18.5,40.95 -40.9,40.95 -22.4,0 -41,-18.2 -41,-40.95 0,-22.4 18.6,-40.95 41,-40.95 v 0" /><path
         id="path216"
         style="fill:#ffffff;fill-opacity:1;fill-rule:evenodd;stroke:none"
         d="m 6807.15,5300.75 c 9.45,0 17.15,7.7 17.15,16.8 0,9.45 -7.7,17.15 -17.15,17.15 -9.1,0 -16.8,-7.7 -16.8,-17.15 0,-9.1 7.7,-16.8 16.8,-16.8 v 0" /><path
         id="path218"
         style="fill:#ffffff;fill-opacity:1;fill-rule:evenodd;stroke:none"
         d="m 6790,8160.95 c 9.45,0 16.8,7.7 16.8,17.15 0,9.1 -7.35,16.8 -16.8,16.8 -9.45,0 -17.15,-7.7 -17.15,-16.8 0,-9.45 7.7,-17.15 17.15,-17.15 v 0" /><path
         id="path220"
         style="fill:#ffffff;fill-opacity:1;fill-rule:evenodd;stroke:none"
         d="m 9667,9114.7 c 9.45,0 16.8,7.7 16.8,17.15 0,9.45 -7.35,16.8 -16.8,16.8 -9.45,0 -17.15,-7.35 -17.15,-16.8 0,-9.45 7.7,-17.15 17.15,-17.15 v 0" /><path
         id="path222"
         style="fill:#ffffff;fill-opacity:1;fill-rule:evenodd;stroke:none"
         d="m 13173.7,6793.5 c 9.1,0 16.8,7.7 16.8,17.15 0,9.1 -7.7,16.8 -16.8,16.8 -9.5,0 -17.2,-7.7 -17.2,-16.8 0,-9.45 7.7,-17.15 17.2,-17.15 v 0" /><path
         id="path224"
         style="fill:#ffffff;fill-opacity:1;fill-rule:evenodd;stroke:none"
         d="m 15667.8,6793.5 c 9.4,0 16.8,7.7 16.8,17.15 0,9.1 -7.4,16.8 -16.8,16.8 -9.5,0 -17.2,-7.7 -17.2,-16.8 0,-9.45 7.7,-17.15 17.2,-17.15 v 0" /><g
         transform="scale(1.00012)"
         id="g226"><path
           id="path228"
           style="fill:#ffffff;fill-opacity:1;fill-rule:evenodd;stroke:none"
           d="m 16283.2,4595.29 c 9.1,0 16.8,7.34 16.8,16.8 0,9.44 -7.7,17.14 -16.8,17.14 -9.5,0 -17.2,-7.7 -17.2,-17.14 0,-9.46 7.7,-16.8 17.2,-16.8 v 0" /></g><path
         id="path230"
         style="fill:#ffffff;fill-opacity:1;fill-rule:evenodd;stroke:none"
         d="m 10432.4,4398.1 c 9.5,0 17.2,7.7 17.2,17.15 0,9.45 -7.7,16.8 -17.2,16.8 -9.4,0 -17.1,-7.35 -17.1,-16.8 0,-9.45 7.7,-17.15 17.1,-17.15 v 0" /><path
         id="path232"
         style="fill:#ffffff;fill-opacity:1;fill-rule:evenodd;stroke:none"
         d="m 11395.6,2472.05 c 9.2,0 16.8,7.7 16.8,16.8 0,9.45 -7.6,17.15 -16.8,17.15 -9.4,0 -17.1,-7.7 -17.1,-17.15 0,-9.1 7.7,-16.8 17.1,-16.8 v 0" /><path
         id="path234"
         style="fill:#ffffff;fill-opacity:1;fill-rule:evenodd;stroke:none"
         d="m 4283.65,5707.1 c 9.1,0 16.8,7.35 16.8,16.8 0,9.45 -7.7,17.15 -16.8,17.15 -9.45,0 -17.15,-7.7 -17.15,-17.15 0,-9.45 7.7,-16.8 17.15,-16.8 v 0" /><path
         id="path236"
         style="fill:#ffffff;fill-opacity:1;fill-rule:evenodd;stroke:none"
         d="m 2578.8,7638.75 c 9.45,0 17.15,7.7 17.15,16.8 0,9.45 -7.7,17.15 -17.15,17.15 -9.1,0 -16.8,-7.7 -16.8,-17.15 0,-9.1 7.7,-16.8 16.8,-16.8 v 0" /><path
         id="path238"
         style="fill:#ffffff;fill-opacity:1;fill-rule:evenodd;stroke:none"
         d="m 2530.15,6398.35 c 9.45,0 17.15,7.7 17.15,17.15 0,9.1 -7.7,16.8 -17.15,16.8 -9.45,0 -16.8,-7.7 -16.8,-16.8 0,-9.45 7.35,-17.15 16.8,-17.15 v 0" /><path
         id="path240"
         style="fill:#ffffff;fill-opacity:1;fill-rule:evenodd;stroke:none"
         d="m 1591.8,4669.7 c 9.45,0 17.15,7.7 17.15,17.15 0,9.45 -7.7,16.8 -17.15,16.8 -9.45,0 -16.8,-7.35 -16.8,-16.8 0,-9.45 7.35,-17.15 16.8,-17.15 v 0" /><path
         id="path242"
         style="fill:#ffffff;fill-opacity:1;fill-rule:evenodd;stroke:none"
         d="m 2158.45,8018.85 c 9.1,0 16.8,7.35 16.8,16.8 0,9.45 -7.7,17.15 -16.8,17.15 -9.45,0 -17.15,-7.7 -17.15,-17.15 0,-9.45 7.7,-16.8 17.15,-16.8 v 0" /><path
         id="path244"
         style="fill:#ffffff;fill-opacity:1;fill-rule:evenodd;stroke:none"
         d="m 3715.6,6546.4 c 9.45,0 16.8,7.7 16.8,17.15 0,9.45 -7.35,17.15 -16.8,17.15 -9.45,0 -17.15,-7.7 -17.15,-17.15 0,-9.45 7.7,-17.15 17.15,-17.15 v 0" /><path
         id="path246"
         style="fill:#ffffff;fill-opacity:1;fill-rule:evenodd;stroke:none"
         d="m 1940.75,1044.4 c 9.45,0 17.15,7.7 17.15,16.8 0,9.45 -7.7,17.15 -17.15,17.15 -9.45,0 -16.8,-7.7 -16.8,-17.15 0,-9.1 7.35,-16.8 16.8,-16.8 v 0" /><path
         id="path248"
         style="fill:#ffffff;fill-opacity:1;fill-rule:evenodd;stroke:none"
         d="m 5444.25,397.602 c 9.45,0 16.8,7.699 16.8,17.148 0,9.102 -7.35,16.801 -16.8,16.801 -9.45,0 -17.15,-7.699 -17.15,-16.801 0,-9.449 7.7,-17.148 17.15,-17.148 v 0" /><g
         transform="scale(1.03955)"
         id="g250"><path
           id="path252"
           style="fill:#ffffff;fill-opacity:1;fill-rule:evenodd;stroke:none"
           d="m 16283.5,914.439 c 9.1,0 16.5,7.406 16.5,16.496 0,9.09 -7.4,16.5 -16.5,16.5 -8.8,0 -16.2,-7.41 -16.2,-16.5 0,-9.09 7.4,-16.496 16.2,-16.496 v 0" /></g><path
         id="path254"
         style="fill:#ffffff;fill-opacity:1;fill-rule:evenodd;stroke:none"
         d="m 13329.4,3328.5 c 9.5,0 17.2,7.7 17.2,17.15 0,9.45 -7.7,16.8 -17.2,16.8 -9.4,0 -17.1,-7.35 -17.1,-16.8 0,-9.45 7.7,-17.15 17.1,-17.15 v 0" /></g></g></svg>